<svg width="36" height="38" viewBox="0 0 36 38" fill="none" xmlns="http://www.w3.org/2000/svg">
<g filter="url(#filter0_d_9_1949)">
<path fill-rule="evenodd" clip-rule="evenodd" d="M30.1115 11.5897C29.0473 12.6446 27.6171 13.2598 26.1106 13.3088C24.5818 13.3586 23.0927 12.8215 21.9542 11.8097C20.8157 10.7979 20.1158 9.38965 20.0006 7.879C19.8876 6.39555 20.3469 4.92597 21.2842 3.7661C21.7855 3.16328 22.4062 2.66094 23.1107 2.29432C22.2726 2.10178 21.3994 2 20.5022 2C14.1522 2 9.00439 7.09853 9.00439 13.3879C9.00439 14.7731 9.25411 16.1006 9.7114 17.3285C10.2553 16.9409 10.8621 16.6344 11.5137 16.427C11.1835 15.473 11.0044 14.4504 11.0044 13.3879C11.0044 8.8319 14.2967 5.01112 18.6841 4.17153C18.1329 5.36909 17.889 6.69493 17.9907 8.02914C18.145 10.0531 19.0828 11.9399 20.6082 13.2955C22.1335 14.6511 24.1286 15.3707 26.1769 15.3041C27.5231 15.2603 28.8239 14.8791 29.964 14.2107C29.6 18.3461 26.5181 21.7314 22.4722 22.5739C22.8952 23.1027 23.1848 23.7408 23.2906 24.4386C28.2933 23.2043 32.0001 18.7249 32.0001 13.3879C32.0001 12.0922 31.7816 10.8471 31.3792 9.68667C31.0847 10.4023 30.6511 11.0476 30.1115 11.5897Z" fill="url(#paint0_linear_9_1949)"/>
<path fill-rule="evenodd" clip-rule="evenodd" d="M11.5025 27.9909L11.5232 27.9909V27.9914H14.9899C14.9903 27.9919 14.9906 27.9923 14.9909 27.9927H14.998C14.9977 27.9923 14.9974 27.9919 14.9971 27.9914H18.7739C18.7797 27.9919 18.7855 27.9923 18.7913 27.9927H19.0024V28.0002C19.0032 28.0002 19.0041 28.0002 19.005 28.0002C20.6629 28.0002 22.0066 26.6563 22.0066 24.999C22.0066 23.3416 20.6629 21.9978 19.005 21.9978C18.2367 21.9978 17.5358 22.2864 17.0049 22.761C17.0073 22.6945 17.0086 22.6277 17.0086 22.5606C17.0086 21.8914 16.8868 21.2504 16.664 20.6581L16.6585 20.661C15.8805 18.6057 13.8759 17.1294 11.5025 17.1294C8.4454 17.1294 6 19.5789 6 22.5602C6 25.5414 8.4454 27.9909 11.5025 27.9909ZM18.7289 29.9927C18.8203 29.9977 18.9123 30.0002 19.005 30.0002C21.7673 30.0002 24.0066 27.7611 24.0066 24.999C24.0066 22.2369 21.7673 19.9978 19.005 19.9978C18.8531 19.9978 18.7028 20.0045 18.5544 20.0178C17.5061 17.1659 14.7444 15.1294 11.5025 15.1294C7.35899 15.1294 4 18.4563 4 22.5602C4 26.6641 7.35899 29.9909 11.5025 29.9909C11.5046 29.9909 11.5067 29.9909 11.5088 29.9909V29.9927L18.7289 29.9927Z" fill="url(#paint1_linear_9_1949)"/>
</g>
<defs>
<filter id="filter0_d_9_1949" x="-2" y="0" width="40" height="40" filterUnits="userSpaceOnUse" color-interpolation-filters="sRGB">
<feFlood flood-opacity="0" result="BackgroundImageFix"/>
<feColorMatrix in="SourceAlpha" type="matrix" values="0 0 0 0 0 0 0 0 0 0 0 0 0 0 0 0 0 0 127 0" result="hardAlpha"/>
<feOffset dy="4"/>
<feGaussianBlur stdDeviation="2"/>
<feComposite in2="hardAlpha" operator="out"/>
<feColorMatrix type="matrix" values="0 0 0 0 0 0 0 0 0 0 0 0 0 0 0 0 0 0 0.25 0"/>
<feBlend mode="normal" in2="BackgroundImageFix" result="effect1_dropShadow_9_1949"/>
<feBlend mode="normal" in="SourceGraphic" in2="effect1_dropShadow_9_1949" result="shape"/>
</filter>
<linearGradient id="paint0_linear_9_1949" x1="20.5022" y1="2" x2="20.5022" y2="24.4386" gradientUnits="userSpaceOnUse">
<stop stop-color="#F5BD52"/>
<stop offset="1" stop-color="#F5DA79"/>
</linearGradient>
<linearGradient id="paint1_linear_9_1949" x1="14.0033" y1="15.1294" x2="14.0033" y2="30.0002" gradientUnits="userSpaceOnUse">
<stop stop-color="#B2D4F7"/>
<stop offset="1" stop-color="#D9E2F3"/>
</linearGradient>
</defs>
</svg>
